<?xml version="1.0" encoding="UTF-8" standalone="no"?>
<!-- Created with Inkscape (http://www.inkscape.org/) -->

<svg
   xmlns:ns0="http://www.iki.fi/pav/software/textext/"
   xmlns:dc="http://purl.org/dc/elements/1.1/"
   xmlns:cc="http://creativecommons.org/ns#"
   xmlns:rdf="http://www.w3.org/1999/02/22-rdf-syntax-ns#"
   xmlns:svg="http://www.w3.org/2000/svg"
   xmlns="http://www.w3.org/2000/svg"
   xmlns:sodipodi="http://sodipodi.sourceforge.net/DTD/sodipodi-0.dtd"
   xmlns:inkscape="http://www.inkscape.org/namespaces/inkscape"
   width="210mm"
   height="297mm"
   viewBox="0 0 744.09448819 1052.3622047"
   id="svg2"
   version="1.1"
   inkscape:version="0.91 r13725"
   sodipodi:docname="scaling_gd.svg"
   inkscape:export-filename="/Users/benhammel/Documents/blog/bdhammel.github.io/assets/ml-linear-regress/scaling_gd.png"
   inkscape:export-xdpi="90"
   inkscape:export-ydpi="90">
  <sodipodi:namedview
     id="base"
     pagecolor="#ffffff"
     bordercolor="#666666"
     borderopacity="1.0"
     inkscape:pageopacity="0.0"
     inkscape:pageshadow="2"
     inkscape:zoom="0.77574793"
     inkscape:cx="192.98069"
     inkscape:cy="866.64485"
     inkscape:document-units="px"
     inkscape:current-layer="layer1"
     showgrid="false"
     inkscape:window-width="1680"
     inkscape:window-height="1005"
     inkscape:window-x="0"
     inkscape:window-y="1"
     inkscape:window-maximized="1"
     showguides="true"
     inkscape:guide-bbox="true"
     inkscape:snap-intersection-paths="true"
     inkscape:object-nodes="true"
     inkscape:snap-smooth-nodes="true"
     inkscape:object-paths="true"
     inkscape:snap-nodes="false" />
  <defs
     id="defs4">
    <marker
       inkscape:stockid="Arrow2Lend"
       orient="auto"
       refY="0.0"
       refX="0.0"
       id="marker6999"
       style="overflow:visible;"
       inkscape:isstock="true">
      <path
         id="path7001"
         style="fill-rule:evenodd;stroke-width:0.625;stroke-linejoin:round;stroke:#000000;stroke-opacity:1;fill:#000000;fill-opacity:1"
         d="M 8.7185878,4.0337352 L -2.2072895,0.016013256 L 8.7185884,-4.0017078 C 6.9730900,-1.6296469 6.9831476,1.6157441 8.7185878,4.0337352 z "
         transform="scale(1.1) rotate(180) translate(1,0)" />
    </marker>
    <marker
       inkscape:stockid="Arrow2Lstart"
       orient="auto"
       refY="0.0"
       refX="0.0"
       id="marker6989"
       style="overflow:visible"
       inkscape:isstock="true">
      <path
         id="path6991"
         style="fill-rule:evenodd;stroke-width:0.625;stroke-linejoin:round;stroke:#000000;stroke-opacity:1;fill:#000000;fill-opacity:1"
         d="M 8.7185878,4.0337352 L -2.2072895,0.016013256 L 8.7185884,-4.0017078 C 6.9730900,-1.6296469 6.9831476,1.6157441 8.7185878,4.0337352 z "
         transform="scale(1.1) translate(1,0)" />
    </marker>
    <marker
       inkscape:collect="always"
       inkscape:isstock="true"
       style="overflow:visible"
       id="Arrow2Lstart"
       refX="0.0"
       refY="0.0"
       orient="auto"
       inkscape:stockid="Arrow2Lstart">
      <path
         transform="scale(1.1) translate(1,0)"
         d="M 8.7185878,4.0337352 L -2.2072895,0.016013256 L 8.7185884,-4.0017078 C 6.9730900,-1.6296469 6.9831476,1.6157441 8.7185878,4.0337352 z "
         style="fill-rule:evenodd;stroke-width:0.625;stroke-linejoin:round;stroke:#000000;stroke-opacity:1;fill:#000000;fill-opacity:1"
         id="path4160" />
    </marker>
    <marker
       inkscape:collect="always"
       inkscape:isstock="true"
       style="overflow:visible;"
       id="Arrow2Lend"
       refX="0.0"
       refY="0.0"
       orient="auto"
       inkscape:stockid="Arrow2Lend">
      <path
         transform="scale(1.1) rotate(180) translate(1,0)"
         d="M 8.7185878,4.0337352 L -2.2072895,0.016013256 L 8.7185884,-4.0017078 C 6.9730900,-1.6296469 6.9831476,1.6157441 8.7185878,4.0337352 z "
         style="fill-rule:evenodd;stroke-width:0.625;stroke-linejoin:round;stroke:#000000;stroke-opacity:1;fill:#000000;fill-opacity:1"
         id="path4163" />
    </marker>
    <marker
       inkscape:isstock="true"
       style="overflow:visible;"
       id="Arrow1Mend"
       refX="0.0"
       refY="0.0"
       orient="auto"
       inkscape:stockid="Arrow1Mend">
      <path
         transform="scale(0.4) rotate(180) translate(10,0)"
         style="fill-rule:evenodd;stroke:#000000;stroke-width:1pt;stroke-opacity:1;fill:#000000;fill-opacity:1"
         d="M 0.0,0.0 L 5.0,-5.0 L -12.5,0.0 L 5.0,5.0 L 0.0,0.0 z "
         id="path4151" />
    </marker>
    <marker
       inkscape:isstock="true"
       style="overflow:visible"
       id="Arrow1Mstart"
       refX="0.0"
       refY="0.0"
       orient="auto"
       inkscape:stockid="Arrow1Mstart">
      <path
         transform="scale(0.4) translate(10,0)"
         style="fill-rule:evenodd;stroke:#000000;stroke-width:1pt;stroke-opacity:1;fill:#000000;fill-opacity:1"
         d="M 0.0,0.0 L 5.0,-5.0 L -12.5,0.0 L 5.0,5.0 L 0.0,0.0 z "
         id="path4148" />
    </marker>
    <marker
       inkscape:isstock="true"
       style="overflow:visible"
       id="Arrow1Lstart"
       refX="0.0"
       refY="0.0"
       orient="auto"
       inkscape:stockid="Arrow1Lstart">
      <path
         transform="scale(0.8) translate(12.5,0)"
         style="fill-rule:evenodd;stroke:#000000;stroke-width:1pt;stroke-opacity:1;fill:#000000;fill-opacity:1"
         d="M 0.0,0.0 L 5.0,-5.0 L -12.5,0.0 L 5.0,5.0 L 0.0,0.0 z "
         id="path4142" />
    </marker>
  </defs>
  <metadata
     id="metadata7">
    <rdf:RDF>
      <cc:Work
         rdf:about="">
        <dc:format>image/svg+xml</dc:format>
        <dc:type
           rdf:resource="http://purl.org/dc/dcmitype/StillImage" />
        <dc:title></dc:title>
      </cc:Work>
    </rdf:RDF>
  </metadata>
  <g
     id="layer1"
     inkscape:groupmode="layer"
     inkscape:label="Layer 1">
    <path
       sodipodi:nodetypes="ccc"
       inkscape:connector-curvature="0"
       id="path4136"
       d="m 130.63427,320.95829 0,146.33473 145.8627,0"
       style="fill:none;fill-rule:evenodd;stroke:#000000;stroke-width:1.46475959px;stroke-linecap:butt;stroke-linejoin:miter;stroke-opacity:1;marker-start:url(#Arrow2Lstart);marker-end:url(#Arrow2Lend)" />
    <ellipse
       ry="9.055419"
       rx="3.7824473"
       cy="392.85062"
       cx="204.37334"
       id="path4594"
       style="fill:none;fill-opacity:1;stroke:#000000;stroke-width:1.27901316;stroke-miterlimit:4;stroke-dasharray:none;stroke-opacity:1" />
    <ellipse
       style="fill:none;fill-opacity:1;stroke:#000000;stroke-width:1.27901316;stroke-miterlimit:4;stroke-dasharray:none;stroke-opacity:1"
       id="ellipse4608"
       cx="204.37334"
       cy="392.85062"
       rx="17.152527"
       ry="39.148293" />
    <ellipse
       ry="54.636024"
       rx="23.938358"
       cy="392.85062"
       cx="204.37334"
       id="ellipse4610"
       style="fill:none;fill-opacity:1;stroke:#000000;stroke-width:1.27901316;stroke-miterlimit:4;stroke-dasharray:none;stroke-opacity:1" />
    <ellipse
       style="fill:none;fill-opacity:1;stroke:#000000;stroke-width:1.27901316;stroke-miterlimit:4;stroke-dasharray:none;stroke-opacity:1"
       id="ellipse4612"
       cx="204.37334"
       cy="392.85062"
       rx="31.499067"
       ry="71.892311" />
    <ellipse
       style="fill:none;fill-opacity:1;stroke:#000000;stroke-width:1.27901316;stroke-miterlimit:4;stroke-dasharray:none;stroke-opacity:1"
       id="ellipse4614"
       cx="204.37334"
       cy="392.85062"
       rx="10.986176"
       ry="26.301605" />
    <path
       style="fill:none;fill-rule:evenodd;stroke:#000000;stroke-width:1.46475959px;stroke-linecap:butt;stroke-linejoin:miter;stroke-opacity:1;marker-start:url(#marker6989);marker-end:url(#marker6999)"
       d="m 398.99984,322.29342 0,146.33473 145.8627,0"
       id="path6939"
       inkscape:connector-curvature="0"
       sodipodi:nodetypes="ccc" />
    <ellipse
       style="fill:none;fill-opacity:1;stroke:#000000;stroke-width:1.45675051;stroke-miterlimit:4;stroke-dasharray:none;stroke-opacity:1"
       id="ellipse6941"
       cx="477.50427"
       cy="394.18579"
       rx="6.5084171"
       ry="6.8269439" />
    <circle
       r="29.514172"
       cy="394.18579"
       cx="477.50427"
       id="ellipse6943"
       style="fill:none;fill-opacity:1;stroke:#000000;stroke-width:1.45675051;stroke-miterlimit:4;stroke-dasharray:none;stroke-opacity:1" />
    <ellipse
       style="fill:none;fill-opacity:1;stroke:#000000;stroke-width:1.45675051;stroke-miterlimit:4;stroke-dasharray:none;stroke-opacity:1"
       id="ellipse6945"
       cx="477.50427"
       cy="394.18579"
       rx="41.190475"
       ry="41.190479" />
    <circle
       r="54.200111"
       cy="394.18579"
       cx="477.50427"
       id="ellipse6947"
       style="fill:none;fill-opacity:1;stroke:#000000;stroke-width:1.45675051;stroke-miterlimit:4;stroke-dasharray:none;stroke-opacity:1" />
    <ellipse
       ry="19.828964"
       rx="18.903797"
       cy="394.18579"
       cx="477.50427"
       id="ellipse6949"
       style="fill:none;fill-opacity:1;stroke:#000000;stroke-width:1.45675051;stroke-miterlimit:4;stroke-dasharray:none;stroke-opacity:1" />
    <g
       style="font-style:normal;font-variant:normal;font-weight:normal;font-stretch:normal;letter-spacing:normal;word-spacing:normal;text-anchor:start;fill:none;fill-opacity:1;fill-rule:evenodd;stroke:#000000;stroke-linecap:butt;stroke-linejoin:miter;stroke-miterlimit:10.43299961;stroke-dasharray:none;stroke-dashoffset:0;stroke-opacity:1"
       ns0:jacobian_sqrt="1.558777"
       inkscapeversion="0.91"
       ns0:alignment="middle center"
       ns0:scale="1.24702137435"
       ns0:preamble="/Users/benhammel/.config/inkscape/extensions/default_packages.tex"
       ns0:text="$\\mathcal{L}(\\Theta_1^{\'}, \\Theta_2^{\'})$"
       ns0:pdfconverter="pstoedit"
       ns0:texconverter="/library/tex/texbin/pdflatex"
       ns0:version="0.8.0"
       word-spacing="normal"
       letter-spacing="normal"
       font-size-adjust="none"
       font-stretch="normal"
       font-weight="normal"
       font-variant="normal"
       font-style="normal"
       stroke-miterlimit="10.433"
       xml:space="preserve"
       transform="matrix(2.2670964,0,0,-2.2670964,172.10917,1830.2473)"
       id="g7330"><path
         id="path7332"
         style="fill:none;fill-opacity:1;stroke:#000000;stroke-width:0;stroke-opacity:1"
         d="m 150.51,658.16 0.05,0.08 0.04,0.07 0.05,0.08 0.04,0.07 0.04,0.08 0.04,0.07 0.04,0.07 0.04,0.07 0.03,0.07 0.03,0.07 0.03,0.06 0.03,0.07 0.03,0.06 0.03,0.07 0.05,0.12 0.04,0.12 0.04,0.12 0.04,0.12 0.03,0.11 0.04,0.11 0.02,0.1 0.03,0.11 0.03,0.1 c 0.34,1.37 0.72,2.56 1.34,3.24 0.12,0.13 0.2,0.22 0.52,0.22 0.69,0 0.71,-0.68 0.71,-0.82 0,-0.18 -0.05,-0.32 -0.05,-0.37 0,-0.07 0.06,-0.07 0.07,-0.07 0.16,0 0.43,0.11 0.68,0.29 0.17,0.14 0.26,0.24 0.26,0.64 0,0.54 -0.28,0.95 -0.83,0.95 -0.32,0 -1.2,-0.08 -2.18,-1.07 -0.8,-0.81 -1.26,-2.6 -1.45,-3.34 -0.18,-0.69 -0.26,-1 -0.56,-1.59 -0.07,-0.12 -0.33,-0.56 -0.47,-0.69 -0.27,-0.25 -0.37,-0.42 -0.37,-0.47 0,-0.02 0.02,-0.06 0.09,-0.06 0.04,0 0.25,0.04 0.51,0.2 0.17,0.1 0.19,0.12 0.42,0.36 0.5,-0.01 0.85,-0.1 1.47,-0.28 0.51,-0.14 1.02,-0.28 1.53,-0.28 0.81,0 1.62,0.6 1.94,1.04 0.2,0.27 0.26,0.52 0.26,0.55 0,0.06 -0.06,0.06 -0.07,0.06 -0.16,0 -0.4,-0.1 -0.57,-0.22 -0.26,-0.17 -0.28,-0.23 -0.34,-0.4 -0.05,-0.16 -0.11,-0.24 -0.15,-0.3 -0.08,-0.12 -0.09,-0.12 -0.24,-0.12 -0.48,0 -0.98,0.15 -1.64,0.33 -0.28,0.08 -0.83,0.24 -1.32,0.24 -0.13,0 -0.27,-0.01 -0.4,-0.04 z"
         inkscape:connector-curvature="0" /><path
         id="path7334"
         style="fill:none;fill-opacity:1;stroke:#000000;stroke-width:0;stroke-opacity:1"
         d="m 158.88,654.85 0,0.01 0,0 0,0 0,0.01 0,0 0,0 0,0.01 0,0 0,0 0,0.01 -0.01,0 0,0.01 0,0 -0.01,0.01 0,0 -0.01,0.01 0,0.01 -0.01,0 0,0.01 0,0 -0.01,0.01 0,0 0,0 -0.01,0.01 0,0 -0.01,0.01 0,0 -0.01,0.01 0,0 -0.01,0.01 0,0 -0.01,0.01 0,0.01 -0.01,0 -0.01,0.01 0,0.01 -0.01,0 -0.01,0.01 0,0.01 -0.01,0 -0.01,0.01 -0.01,0.01 c -1.24,1.25 -1.56,3.13 -1.56,4.65 0,1.73 0.38,3.45 1.61,4.7 0.12,0.12 0.12,0.14 0.12,0.17 0,0.07 -0.03,0.09 -0.09,0.09 -0.11,0 -1,-0.67 -1.59,-1.93 -0.51,-1.09 -0.63,-2.2 -0.63,-3.03 0,-0.78 0.11,-1.98 0.66,-3.1 0.6,-1.22 1.45,-1.87 1.56,-1.87 0.06,0 0.09,0.03 0.09,0.1 z"
         inkscape:connector-curvature="0" /><path
         id="path7336"
         style="fill:none;fill-opacity:1;stroke:#000000;stroke-width:0;stroke-opacity:1"
         d="m 166.65,660.6 -0.01,0.19 -0.01,0.19 -0.02,0.18 -0.03,0.18 -0.04,0.18 -0.04,0.17 -0.06,0.17 -0.06,0.17 -0.06,0.16 -0.08,0.15 -0.08,0.16 -0.08,0.14 -0.1,0.15 -0.1,0.13 -0.1,0.13 -0.11,0.13 -0.12,0.12 -0.12,0.11 -0.12,0.11 -0.13,0.1 -0.14,0.1 -0.14,0.08 -0.14,0.08 -0.15,0.07 -0.15,0.07 -0.15,0.06 -0.16,0.04 -0.16,0.04 -0.16,0.04 -0.17,0.02 -0.16,0.01 -0.17,0.01 0,-0.22 c 1.01,0 2.35,-0.9 2.35,-3.42 0,-2.53 -1.41,-3.36 -2.34,-3.36 l 0,0 c -0.99,0 -2.36,0.86 -2.36,3.36 0,2.56 1.39,3.42 2.35,3.42 l 0,0.22 c -1.79,0 -3.31,-1.59 -3.31,-3.64 0,-2.03 1.53,-3.58 3.31,-3.58 1.81,0 3.32,1.58 3.32,3.58 z"
         inkscape:connector-curvature="0" /><polygon
         id="polygon7338"
         style="fill:none;fill-opacity:1;stroke:#000000;stroke-width:0;stroke-opacity:1"
         points="161.8,661.01 161.8,661.35 161.55,661.35 161.55,659.92 161.8,659.92 161.8,660.26 164.86,660.26 164.86,659.92 165.11,659.92 165.11,661.35 164.86,661.35 164.86,661.01 " /><path
         id="path7340"
         style="fill:none;fill-opacity:1;stroke:#000000;stroke-width:0;stroke-opacity:1"
         d="m 168.99,666.17 0.01,0 0,0 0,0 0,0 0,0 0,0 0,0.01 0,0 0,0 0,0.01 0.01,0 0,0 0,0.01 0,0 0.01,0.01 0,0.01 0,0 0,0.01 0,0 0.01,0.01 0,0.01 0,0 0,0.01 0,0.01 0.01,0.01 0,0 0,0.01 0,0.01 0,0 0,0.01 0,0.01 0,0.01 0,0 0,0.01 c 0,0.18 -0.15,0.29 -0.3,0.29 -0.21,0 -0.26,-0.15 -0.29,-0.22 l -0.76,-2.16 c -0.02,-0.05 -0.02,-0.07 -0.02,-0.08 0,-0.08 0.21,-0.12 0.21,-0.12 0.05,0 0.06,0.02 0.09,0.08 z"
         inkscape:connector-curvature="0" /><path
         id="path7342"
         style="fill:none;fill-opacity:1;stroke:#000000;stroke-width:0;stroke-opacity:1"
         d="m 169.55,659.19 0,0 0,0.01 0,0.01 0,0.01 0,0.01 0,0 0,0.01 0,0.01 0,0 0,0.01 0,0.01 0,0 0,0.01 0,0 -0.01,0.01 0,0.01 0,0 0,0 0,0.01 0,0.01 -0.01,0.01 0,0.01 0,0 -0.01,0.01 0,0 -0.01,0.01 0,0 -0.01,0 -0.01,0.01 -0.01,0 -0.01,0 0,0 -0.01,0.01 -0.01,0 0,0 -0.01,0 0,0 -0.01,0 0,0 -0.01,0 -0.01,0 -0.01,0 0,0 -0.01,0 -0.01,0 -0.01,0 0,0 -0.01,0 -0.01,0 -0.01,0 c -0.45,-0.44 -1.08,-0.45 -1.37,-0.45 l 0,-0.25 c 0.17,0 0.63,0 1.01,0.2 l 0,-3.55 c 0,-0.23 0,-0.32 -0.7,-0.32 l -0.26,0 0,-0.25 c 0.12,0.01 0.98,0.03 1.24,0.03 0.22,0 1.1,-0.02 1.25,-0.03 l 0,0.25 -0.26,0 c -0.7,0 -0.7,0.09 -0.7,0.32 z"
         inkscape:connector-curvature="0" /><path
         id="path7344"
         style="fill:none;fill-opacity:1;stroke:#000000;stroke-width:0;stroke-opacity:1"
         d="m 173.7,657.24 0,0.07 0,0.05 -0.01,0.06 0,0.06 -0.01,0.05 -0.01,0.05 0,0.06 -0.01,0.04 -0.02,0.05 -0.01,0.05 -0.01,0.04 -0.02,0.04 -0.02,0.04 -0.01,0.04 -0.02,0.04 -0.02,0.03 -0.02,0.04 -0.03,0.03 -0.02,0.02 -0.03,0.03 -0.02,0.03 -0.03,0.02 -0.03,0.02 -0.02,0.02 -0.03,0.01 -0.03,0.02 -0.04,0.01 -0.03,0.01 -0.03,0.01 -0.04,0 -0.03,0.01 -0.04,0 c -0.33,0 -0.53,-0.25 -0.53,-0.53 0,-0.27 0.2,-0.53 0.53,-0.53 0.12,0 0.25,0.05 0.35,0.13 0.03,0.02 0.04,0.03 0.05,0.03 0.01,0 0.02,-0.01 0.02,-0.15 0,-0.73 -0.35,-1.33 -0.68,-1.65 -0.11,-0.11 -0.11,-0.13 -0.11,-0.16 0,-0.07 0.05,-0.11 0.1,-0.11 0.11,0 0.91,0.76 0.91,1.92 z"
         inkscape:connector-curvature="0" /><path
         id="path7346"
         style="fill:none;fill-opacity:1;stroke:#000000;stroke-width:0;stroke-opacity:1"
         d="m 183.29,660.6 0,0.19 -0.01,0.19 -0.02,0.18 -0.03,0.18 -0.04,0.18 -0.05,0.17 -0.05,0.17 -0.06,0.17 -0.07,0.16 -0.07,0.15 -0.08,0.16 -0.09,0.14 -0.09,0.15 -0.1,0.13 -0.11,0.13 -0.11,0.13 -0.11,0.12 -0.12,0.11 -0.13,0.11 -0.13,0.1 -0.13,0.1 -0.14,0.08 -0.15,0.08 -0.14,0.07 -0.15,0.07 -0.16,0.06 -0.15,0.04 -0.16,0.04 -0.17,0.04 -0.16,0.02 -0.17,0.01 -0.17,0.01 0,-0.22 c 1.01,0 2.36,-0.9 2.36,-3.42 0,-2.53 -1.41,-3.36 -2.35,-3.36 l 0,0 c -0.98,0 -2.35,0.86 -2.35,3.36 0,2.56 1.39,3.42 2.34,3.42 l 0,0.22 c -1.78,0 -3.31,-1.59 -3.31,-3.64 0,-2.03 1.54,-3.58 3.31,-3.58 1.82,0 3.32,1.58 3.32,3.58 z"
         inkscape:connector-curvature="0" /><polygon
         id="polygon7348"
         style="fill:none;fill-opacity:1;stroke:#000000;stroke-width:0;stroke-opacity:1"
         points="178.45,661.01 178.45,661.35 178.2,661.35 178.2,659.92 178.45,659.92 178.45,660.26 181.51,660.26 181.51,659.92 181.76,659.92 181.76,661.35 181.51,661.35 181.51,661.01 " /><path
         id="path7350"
         style="fill:none;fill-opacity:1;stroke:#000000;stroke-width:0;stroke-opacity:1"
         d="m 185.64,666.17 0,0 0,0 0,0 0,0 0,0 0,0 0.01,0.01 0,0 0,0 0,0.01 0,0 0,0 0.01,0.01 0,0 0,0.01 0,0.01 0.01,0 0,0.01 0,0 0,0.01 0,0.01 0.01,0 0,0.01 0,0.01 0,0.01 0,0 0.01,0.01 0,0.01 0,0 0,0.01 0,0.01 0,0.01 0,0 0,0.01 c 0,0.18 -0.16,0.29 -0.31,0.29 -0.2,0 -0.26,-0.15 -0.28,-0.22 l -0.76,-2.16 c -0.02,-0.05 -0.02,-0.07 -0.02,-0.08 0,-0.08 0.2,-0.12 0.21,-0.12 0.04,0 0.05,0.02 0.08,0.08 z"
         inkscape:connector-curvature="0" /><path
         id="path7352"
         style="fill:none;fill-opacity:1;stroke:#000000;stroke-width:0;stroke-opacity:1"
         d="m 187.38,656.03 -0.23,0 c -0.03,-0.15 -0.1,-0.56 -0.19,-0.63 -0.05,-0.05 -0.59,-0.05 -0.69,-0.05 l -1.28,0 c 0.73,0.65 0.97,0.85 1.39,1.17 0.52,0.41 1,0.84 1,1.5 0,0.85 -0.74,1.36 -1.63,1.36 -0.87,0 -1.46,-0.6 -1.46,-1.24 0,-0.36 0.3,-0.39 0.37,-0.39 0.17,0 0.38,0.11 0.38,0.36 0,0.13 -0.05,0.37 -0.42,0.37 0.22,0.5 0.69,0.65 1.02,0.65 0.7,0 1.07,-0.54 1.07,-1.11 0,-0.6 -0.44,-1.08 -0.66,-1.33 l -1.69,-1.66 c -0.07,-0.06 -0.07,-0.07 -0.07,-0.27 l 2.88,0 z"
         inkscape:connector-curvature="0" /><path
         id="path7354"
         style="fill:none;fill-opacity:1;stroke:#000000;stroke-width:0;stroke-opacity:1"
         d="m 191.2,659.72 0,0.07 0,0.08 0,0.08 0,0.08 -0.01,0.17 -0.01,0.17 -0.02,0.18 -0.02,0.19 -0.03,0.2 -0.03,0.2 -0.04,0.2 -0.04,0.21 -0.06,0.21 -0.06,0.21 -0.07,0.21 -0.08,0.21 -0.04,0.11 -0.05,0.11 -0.04,0.1 -0.05,0.11 c -0.6,1.22 -1.46,1.86 -1.56,1.86 -0.06,0 -0.1,-0.03 -0.1,-0.09 0,-0.03 0,-0.05 0.19,-0.23 0.98,-0.99 1.55,-2.57 1.55,-4.64 0,-1.7 -0.37,-3.45 -1.61,-4.7 -0.13,-0.12 -0.13,-0.14 -0.13,-0.17 0,-0.06 0.04,-0.1 0.1,-0.1 0.1,0 1,0.68 1.59,1.94 0.5,1.09 0.62,2.19 0.62,3.03 z"
         inkscape:connector-curvature="0" /></g>    <g
       ns0:jacobian_sqrt="1.558777"
       inkscapeversion="0.91"
       ns0:alignment="middle center"
       ns0:scale="1.24702137435"
       ns0:preamble="/Users/benhammel/.config/inkscape/extensions/default_packages.tex"
       ns0:text="$w_1$"
       ns0:pdfconverter="pstoedit"
       ns0:texconverter="/library/tex/texbin/pdflatex"
       ns0:version="0.8.0"
       word-spacing="normal"
       letter-spacing="normal"
       font-size-adjust="none"
       font-stretch="normal"
       font-weight="normal"
       font-variant="normal"
       font-style="normal"
       stroke-miterlimit="10.433"
       xml:space="preserve"
       transform="matrix(2.2832336,0,0,-2.2832336,-84.687763,1992.1696)"
       id="content"
       style="font-style:normal;font-variant:normal;font-weight:normal;font-stretch:normal;letter-spacing:normal;word-spacing:normal;text-anchor:start;fill:none;fill-opacity:1;fill-rule:evenodd;stroke:#000000;stroke-linecap:butt;stroke-linejoin:miter;stroke-miterlimit:10.43299961;stroke-dasharray:none;stroke-dashoffset:0;stroke-opacity:1"><path
         id="path7701"
         d="m 153.32,660.6 0,0.02 0.01,0.03 0,0.02 0.01,0.02 0.01,0.02 0,0.03 0.01,0.05 0.02,0.05 0.01,0.05 0.01,0.05 0.01,0.05 0.01,0.02 0,0.02 0.01,0.02 0,0.03 0.01,0.02 0,0.02 0.01,0.02 0,0.01 0.01,0.02 0,0.02 0,0.01 0,0.01 0.01,0.01 0,0.01 0,0.01 0,0.01 c 0,0.18 -0.14,0.27 -0.29,0.27 -0.12,0 -0.3,-0.08 -0.37,-0.28 -0.03,-0.07 -0.5,-1.97 -0.57,-2.23 -0.07,-0.29 -0.09,-0.47 -0.09,-0.65 0,-0.11 0,-0.13 0.01,-0.18 -0.23,-0.53 -0.53,-0.84 -0.92,-0.84 -0.79,0 -0.79,0.74 -0.79,0.91 0,0.32 0.05,0.7 0.52,1.92 0.1,0.3 0.16,0.44 0.16,0.64 0,0.45 -0.32,0.82 -0.81,0.82 -0.95,0 -1.32,-1.45 -1.32,-1.53 0,-0.1 0.1,-0.1 0.12,-0.1 0.1,0 0.11,0.02 0.16,0.17 0.27,0.93 0.66,1.24 1.01,1.24 0.09,0 0.25,-0.01 0.25,-0.33 0,-0.25 -0.11,-0.53 -0.18,-0.7 -0.44,-1.17 -0.56,-1.62 -0.56,-2 0,-0.91 0.67,-1.25 1.41,-1.25 0.17,0 0.64,0 1.04,0.69 0.26,-0.64 0.95,-0.69 1.25,-0.69 0.75,0 1.18,0.62 1.45,1.22 0.33,0.77 0.65,2.1 0.65,2.58 0,0.55 -0.27,0.7 -0.44,0.7 -0.25,0 -0.5,-0.26 -0.5,-0.48 0,-0.13 0.07,-0.19 0.16,-0.27 0.11,-0.11 0.35,-0.37 0.35,-0.84 0,-0.34 -0.29,-1.32 -0.55,-1.82 -0.25,-0.53 -0.6,-0.88 -1.09,-0.88 -0.47,0 -0.74,0.3 -0.74,0.87 0,0.28 0.07,0.58 0.11,0.72 z"
         inkscape:connector-curvature="0"
         style="fill:#000000;stroke-width:0" /><path
         id="path7703"
         d="m 158.19,660.16 0,0.01 0,0.01 0,0.01 0,0.01 0,0 0,0.01 0,0.01 0,0.01 0,0 0,0.01 -0.01,0.01 0,0 0,0.01 0,0 0,0.01 0,0 0,0.01 0,0 0,0.01 0,0.01 -0.01,0.01 0,0 -0.01,0.01 0,0.01 0,0 -0.01,0.01 -0.01,0 0,0 -0.01,0.01 -0.01,0 -0.01,0 -0.01,0 0,0 -0.01,0 0,0 -0.01,0.01 0,0 -0.01,0 -0.01,0 0,0 -0.01,0 -0.01,0 0,0 -0.01,0 -0.01,0 -0.01,0 -0.01,0 0,0 -0.01,0 -0.01,0 c -0.45,-0.44 -1.09,-0.45 -1.37,-0.45 l 0,-0.25 c 0.16,0 0.63,0 1.01,0.2 l 0,-3.55 c 0,-0.23 0,-0.32 -0.7,-0.32 l -0.26,0 0,-0.25 c 0.12,0.01 0.98,0.03 1.24,0.03 0.22,0 1.1,-0.02 1.25,-0.03 l 0,0.25 -0.26,0 c -0.7,0 -0.7,0.09 -0.7,0.32 z"
         inkscape:connector-curvature="0"
         style="fill:#000000;stroke-width:0" /></g>    <g
       style="font-style:normal;font-variant:normal;font-weight:normal;font-stretch:normal;letter-spacing:normal;word-spacing:normal;text-anchor:start;fill:none;fill-opacity:1;fill-rule:evenodd;stroke:#000000;stroke-linecap:butt;stroke-linejoin:miter;stroke-miterlimit:10.43299961;stroke-dasharray:none;stroke-dashoffset:0;stroke-opacity:1"
       id="g7863"
       transform="matrix(2.2832336,0,0,-2.2832336,-245.47902,1837.5329)"
       xml:space="preserve"
       stroke-miterlimit="10.433"
       font-style="normal"
       font-variant="normal"
       font-weight="normal"
       font-stretch="normal"
       font-size-adjust="none"
       letter-spacing="normal"
       word-spacing="normal"
       ns0:version="0.8.0"
       ns0:texconverter="/library/tex/texbin/pdflatex"
       ns0:pdfconverter="pstoedit"
       ns0:text="$w_2$"
       ns0:preamble="/Users/benhammel/.config/inkscape/extensions/default_packages.tex"
       ns0:scale="1.24702137435"
       ns0:alignment="middle center"
       inkscapeversion="0.91"
       ns0:jacobian_sqrt="1.558777"><path
         style="fill:#000000;stroke-width:0"
         inkscape:connector-curvature="0"
         d="m 153.32,660.6 0,0.02 0.01,0.03 0,0.02 0.01,0.02 0.01,0.02 0,0.03 0.01,0.05 0.02,0.05 0.01,0.05 0.01,0.05 0.01,0.05 0.01,0.02 0,0.02 0.01,0.02 0,0.03 0.01,0.02 0,0.02 0.01,0.02 0,0.01 0.01,0.02 0,0.02 0,0.01 0,0.01 0.01,0.01 0,0.01 0,0.01 0,0.01 c 0,0.18 -0.14,0.27 -0.29,0.27 -0.12,0 -0.3,-0.08 -0.37,-0.28 -0.03,-0.07 -0.5,-1.97 -0.57,-2.23 -0.07,-0.29 -0.09,-0.47 -0.09,-0.65 0,-0.11 0,-0.13 0.01,-0.18 -0.23,-0.53 -0.53,-0.84 -0.92,-0.84 -0.79,0 -0.79,0.74 -0.79,0.91 0,0.32 0.05,0.7 0.52,1.92 0.1,0.3 0.16,0.44 0.16,0.64 0,0.45 -0.32,0.82 -0.81,0.82 -0.95,0 -1.32,-1.45 -1.32,-1.53 0,-0.1 0.1,-0.1 0.12,-0.1 0.1,0 0.11,0.02 0.16,0.17 0.27,0.93 0.66,1.24 1.01,1.24 0.09,0 0.25,-0.01 0.25,-0.33 0,-0.25 -0.11,-0.53 -0.18,-0.7 -0.44,-1.17 -0.56,-1.62 -0.56,-2 0,-0.91 0.67,-1.25 1.41,-1.25 0.17,0 0.64,0 1.04,0.69 0.26,-0.64 0.95,-0.69 1.25,-0.69 0.75,0 1.18,0.62 1.45,1.22 0.33,0.77 0.65,2.1 0.65,2.58 0,0.55 -0.27,0.7 -0.44,0.7 -0.25,0 -0.5,-0.26 -0.5,-0.48 0,-0.13 0.07,-0.19 0.16,-0.27 0.11,-0.11 0.35,-0.37 0.35,-0.84 0,-0.34 -0.29,-1.32 -0.55,-1.82 -0.25,-0.53 -0.6,-0.88 -1.09,-0.88 -0.47,0 -0.74,0.3 -0.74,0.87 0,0.28 0.07,0.58 0.11,0.72 z"
         id="path7865" /><path
         style="fill:#000000;stroke-width:0"
         inkscape:connector-curvature="0"
         d="m 159.38,657.01 -0.24,0 c -0.02,-0.16 -0.09,-0.57 -0.18,-0.64 -0.06,-0.04 -0.6,-0.04 -0.7,-0.04 l -1.28,0 c 0.73,0.65 0.98,0.84 1.4,1.17 0.51,0.41 1,0.84 1,1.5 0,0.84 -0.75,1.36 -1.64,1.36 -0.87,0 -1.45,-0.61 -1.45,-1.25 0,-0.35 0.3,-0.39 0.37,-0.39 0.16,0 0.37,0.12 0.37,0.37 0,0.13 -0.05,0.37 -0.42,0.37 0.22,0.5 0.7,0.65 1.02,0.65 0.7,0 1.07,-0.54 1.07,-1.11 0,-0.6 -0.44,-1.08 -0.66,-1.33 l -1.69,-1.66 c -0.06,-0.06 -0.06,-0.07 -0.06,-0.27 l 2.88,0 z"
         id="path7867" /></g>    <g
       style="font-style:normal;font-variant:normal;font-weight:normal;font-stretch:normal;letter-spacing:normal;word-spacing:normal;text-anchor:start;fill:none;fill-opacity:1;fill-rule:evenodd;stroke:#000000;stroke-linecap:butt;stroke-linejoin:miter;stroke-miterlimit:10.43299961;stroke-dasharray:none;stroke-dashoffset:0;stroke-opacity:1"
       id="g7946"
       transform="matrix(2.2832336,0,0,-2.2832336,184.00289,1993.5047)"
       xml:space="preserve"
       stroke-miterlimit="10.433"
       font-style="normal"
       font-variant="normal"
       font-weight="normal"
       font-stretch="normal"
       font-size-adjust="none"
       letter-spacing="normal"
       word-spacing="normal"
       ns0:version="0.8.0"
       ns0:texconverter="/library/tex/texbin/pdflatex"
       ns0:pdfconverter="pstoedit"
       ns0:text="$w_1$"
       ns0:preamble="/Users/benhammel/.config/inkscape/extensions/default_packages.tex"
       ns0:scale="1.24702137435"
       ns0:alignment="middle center"
       inkscapeversion="0.91"
       ns0:jacobian_sqrt="1.558777"><path
         style="fill:#000000;stroke-width:0"
         inkscape:connector-curvature="0"
         d="m 153.32,660.6 0,0.02 0.01,0.03 0,0.02 0.01,0.02 0.01,0.02 0,0.03 0.01,0.05 0.02,0.05 0.01,0.05 0.01,0.05 0.01,0.05 0.01,0.02 0,0.02 0.01,0.02 0,0.03 0.01,0.02 0,0.02 0.01,0.02 0,0.01 0.01,0.02 0,0.02 0,0.01 0,0.01 0.01,0.01 0,0.01 0,0.01 0,0.01 c 0,0.18 -0.14,0.27 -0.29,0.27 -0.12,0 -0.3,-0.08 -0.37,-0.28 -0.03,-0.07 -0.5,-1.97 -0.57,-2.23 -0.07,-0.29 -0.09,-0.47 -0.09,-0.65 0,-0.11 0,-0.13 0.01,-0.18 -0.23,-0.53 -0.53,-0.84 -0.92,-0.84 -0.79,0 -0.79,0.74 -0.79,0.91 0,0.32 0.05,0.7 0.52,1.92 0.1,0.3 0.16,0.44 0.16,0.64 0,0.45 -0.32,0.82 -0.81,0.82 -0.95,0 -1.32,-1.45 -1.32,-1.53 0,-0.1 0.1,-0.1 0.12,-0.1 0.1,0 0.11,0.02 0.16,0.17 0.27,0.93 0.66,1.24 1.01,1.24 0.09,0 0.25,-0.01 0.25,-0.33 0,-0.25 -0.11,-0.53 -0.18,-0.7 -0.44,-1.17 -0.56,-1.62 -0.56,-2 0,-0.91 0.67,-1.25 1.41,-1.25 0.17,0 0.64,0 1.04,0.69 0.26,-0.64 0.95,-0.69 1.25,-0.69 0.75,0 1.18,0.62 1.45,1.22 0.33,0.77 0.65,2.1 0.65,2.58 0,0.55 -0.27,0.7 -0.44,0.7 -0.25,0 -0.5,-0.26 -0.5,-0.48 0,-0.13 0.07,-0.19 0.16,-0.27 0.11,-0.11 0.35,-0.37 0.35,-0.84 0,-0.34 -0.29,-1.32 -0.55,-1.82 -0.25,-0.53 -0.6,-0.88 -1.09,-0.88 -0.47,0 -0.74,0.3 -0.74,0.87 0,0.28 0.07,0.58 0.11,0.72 z"
         id="path7948" /><path
         style="fill:#000000;stroke-width:0"
         inkscape:connector-curvature="0"
         d="m 158.19,660.16 0,0.01 0,0.01 0,0.01 0,0.01 0,0 0,0.01 0,0.01 0,0.01 0,0 0,0.01 -0.01,0.01 0,0 0,0.01 0,0 0,0.01 0,0 0,0.01 0,0 0,0.01 0,0.01 -0.01,0.01 0,0 -0.01,0.01 0,0.01 0,0 -0.01,0.01 -0.01,0 0,0 -0.01,0.01 -0.01,0 -0.01,0 -0.01,0 0,0 -0.01,0 0,0 -0.01,0.01 0,0 -0.01,0 -0.01,0 0,0 -0.01,0 -0.01,0 0,0 -0.01,0 -0.01,0 -0.01,0 -0.01,0 0,0 -0.01,0 -0.01,0 c -0.45,-0.44 -1.09,-0.45 -1.37,-0.45 l 0,-0.25 c 0.16,0 0.63,0 1.01,0.2 l 0,-3.55 c 0,-0.23 0,-0.32 -0.7,-0.32 l -0.26,0 0,-0.25 c 0.12,0.01 0.98,0.03 1.24,0.03 0.22,0 1.1,-0.02 1.25,-0.03 l 0,0.25 -0.26,0 c -0.7,0 -0.7,0.09 -0.7,0.32 z"
         id="path7950" /></g>    <g
       ns0:jacobian_sqrt="1.558777"
       inkscapeversion="0.91"
       ns0:alignment="middle center"
       ns0:scale="1.24702137435"
       ns0:preamble="/Users/benhammel/.config/inkscape/extensions/default_packages.tex"
       ns0:text="$w_2$"
       ns0:pdfconverter="pstoedit"
       ns0:texconverter="/library/tex/texbin/pdflatex"
       ns0:version="0.8.0"
       word-spacing="normal"
       letter-spacing="normal"
       font-size-adjust="none"
       font-stretch="normal"
       font-weight="normal"
       font-variant="normal"
       font-style="normal"
       stroke-miterlimit="10.433"
       xml:space="preserve"
       transform="matrix(2.2832336,0,0,-2.2832336,23.21164,1838.868)"
       id="g7952"
       style="font-style:normal;font-variant:normal;font-weight:normal;font-stretch:normal;letter-spacing:normal;word-spacing:normal;text-anchor:start;fill:none;fill-opacity:1;fill-rule:evenodd;stroke:#000000;stroke-linecap:butt;stroke-linejoin:miter;stroke-miterlimit:10.43299961;stroke-dasharray:none;stroke-dashoffset:0;stroke-opacity:1"><path
         id="path7954"
         d="m 153.32,660.6 0,0.02 0.01,0.03 0,0.02 0.01,0.02 0.01,0.02 0,0.03 0.01,0.05 0.02,0.05 0.01,0.05 0.01,0.05 0.01,0.05 0.01,0.02 0,0.02 0.01,0.02 0,0.03 0.01,0.02 0,0.02 0.01,0.02 0,0.01 0.01,0.02 0,0.02 0,0.01 0,0.01 0.01,0.01 0,0.01 0,0.01 0,0.01 c 0,0.18 -0.14,0.27 -0.29,0.27 -0.12,0 -0.3,-0.08 -0.37,-0.28 -0.03,-0.07 -0.5,-1.97 -0.57,-2.23 -0.07,-0.29 -0.09,-0.47 -0.09,-0.65 0,-0.11 0,-0.13 0.01,-0.18 -0.23,-0.53 -0.53,-0.84 -0.92,-0.84 -0.79,0 -0.79,0.74 -0.79,0.91 0,0.32 0.05,0.7 0.52,1.92 0.1,0.3 0.16,0.44 0.16,0.64 0,0.45 -0.32,0.82 -0.81,0.82 -0.95,0 -1.32,-1.45 -1.32,-1.53 0,-0.1 0.1,-0.1 0.12,-0.1 0.1,0 0.11,0.02 0.16,0.17 0.27,0.93 0.66,1.24 1.01,1.24 0.09,0 0.25,-0.01 0.25,-0.33 0,-0.25 -0.11,-0.53 -0.18,-0.7 -0.44,-1.17 -0.56,-1.62 -0.56,-2 0,-0.91 0.67,-1.25 1.41,-1.25 0.17,0 0.64,0 1.04,0.69 0.26,-0.64 0.95,-0.69 1.25,-0.69 0.75,0 1.18,0.62 1.45,1.22 0.33,0.77 0.65,2.1 0.65,2.58 0,0.55 -0.27,0.7 -0.44,0.7 -0.25,0 -0.5,-0.26 -0.5,-0.48 0,-0.13 0.07,-0.19 0.16,-0.27 0.11,-0.11 0.35,-0.37 0.35,-0.84 0,-0.34 -0.29,-1.32 -0.55,-1.82 -0.25,-0.53 -0.6,-0.88 -1.09,-0.88 -0.47,0 -0.74,0.3 -0.74,0.87 0,0.28 0.07,0.58 0.11,0.72 z"
         inkscape:connector-curvature="0"
         style="fill:#000000;stroke-width:0" /><path
         id="path7956"
         d="m 159.38,657.01 -0.24,0 c -0.02,-0.16 -0.09,-0.57 -0.18,-0.64 -0.06,-0.04 -0.6,-0.04 -0.7,-0.04 l -1.28,0 c 0.73,0.65 0.98,0.84 1.4,1.17 0.51,0.41 1,0.84 1,1.5 0,0.84 -0.75,1.36 -1.64,1.36 -0.87,0 -1.45,-0.61 -1.45,-1.25 0,-0.35 0.3,-0.39 0.37,-0.39 0.16,0 0.37,0.12 0.37,0.37 0,0.13 -0.05,0.37 -0.42,0.37 0.22,0.5 0.7,0.65 1.02,0.65 0.7,0 1.07,-0.54 1.07,-1.11 0,-0.6 -0.44,-1.08 -0.66,-1.33 l -1.69,-1.66 c -0.06,-0.06 -0.06,-0.07 -0.06,-0.27 l 2.88,0 z"
         inkscape:connector-curvature="0"
         style="fill:#000000;stroke-width:0" /></g>    <g
       ns0:jacobian_sqrt="1.558777"
       inkscapeversion="0.91"
       ns0:alignment="middle center"
       ns0:scale="1.24702137435"
       ns0:preamble="/Users/benhammel/.config/inkscape/extensions/default_packages.tex"
       ns0:text="$\\mathcal{L}(w_1^{\'}, w_2^{\'})$"
       ns0:pdfconverter="pstoedit"
       ns0:texconverter="/library/tex/texbin/pdflatex"
       ns0:version="0.8.0"
       word-spacing="normal"
       letter-spacing="normal"
       font-size-adjust="none"
       font-stretch="normal"
       font-weight="normal"
       font-variant="normal"
       font-style="normal"
       stroke-miterlimit="10.433"
       xml:space="preserve"
       transform="matrix(2.2832336,0,0,-2.2832336,214.95795,1845.6424)"
       id="g8032"
       style="font-style:normal;font-variant:normal;font-weight:normal;font-stretch:normal;letter-spacing:normal;word-spacing:normal;text-anchor:start;fill:none;fill-opacity:1;fill-rule:evenodd;stroke:#000000;stroke-linecap:butt;stroke-linejoin:miter;stroke-miterlimit:10.43299961;stroke-dasharray:none;stroke-dashoffset:0;stroke-opacity:1"><path
         id="path8034"
         d="m 132.35984,657.55114 0.0497,0.0794 0.0397,0.0695 0.0496,0.0794 0.0397,0.0695 0.0397,0.0794 0.0397,0.0695 0.0397,0.0695 0.0397,0.0695 0.0298,0.0695 0.0298,0.0695 0.0298,0.0596 0.0298,0.0695 0.0298,0.0596 0.0298,0.0695 0.0497,0.11915 0.0397,0.11916 0.0397,0.11915 0.0397,0.11915 0.0298,0.10922 0.0397,0.10922 0.0199,0.0993 0.0298,0.10922 0.0298,0.0993 c 0.3376,1.36032 0.71491,2.54191 1.33053,3.2171 0.11915,0.12909 0.19859,0.21845 0.51633,0.21845 0.68512,0 0.70498,-0.67519 0.70498,-0.8142 0,-0.17873 -0.0497,-0.31774 -0.0497,-0.36739 0,-0.0695 0.0596,-0.0695 0.0695,-0.0695 0.15887,0 0.42696,0.10923 0.67519,0.28796 0.1688,0.13901 0.25816,0.2383 0.25816,0.63547 0,0.53619 -0.27802,0.94329 -0.82413,0.94329 -0.31774,0 -1.19152,-0.0794 -2.16459,-1.06244 -0.79435,-0.80428 -1.2511,-2.58162 -1.43976,-3.31639 -0.17872,-0.68513 -0.25816,-0.99294 -0.55604,-1.57877 -0.0695,-0.11915 -0.32766,-0.55604 -0.46668,-0.68512 -0.26809,-0.24823 -0.36738,-0.41703 -0.36738,-0.46668 0,-0.0199 0.0199,-0.0596 0.0894,-0.0596 0.0397,0 0.24824,0.0397 0.5064,0.19858 0.1688,0.0993 0.18866,0.11915 0.41703,0.35746 0.49647,-0.01 0.84399,-0.0993 1.45961,-0.27802 0.5064,-0.13901 1.01279,-0.27802 1.51919,-0.27802 0.80427,0 1.60855,0.59576 1.92629,1.03265 0.19858,0.26809 0.25816,0.51632 0.25816,0.54611 0,0.0596 -0.0596,0.0596 -0.0695,0.0596 -0.15887,0 -0.39717,-0.0993 -0.56597,-0.21844 -0.25816,-0.1688 -0.27802,-0.22837 -0.3376,-0.39717 -0.0496,-0.15887 -0.10922,-0.23831 -0.14894,-0.29788 -0.0794,-0.11915 -0.0894,-0.11915 -0.2383,-0.11915 -0.47661,0 -0.97307,0.14893 -1.62841,0.32766 -0.27802,0.0794 -0.82413,0.23831 -1.31067,0.23831 -0.12908,0 -0.26809,-0.01 -0.39717,-0.0397 z"
         inkscape:connector-curvature="0"
         style="fill:#000000;stroke-width:0" /><path
         id="path8036"
         d="m 140.67068,654.26453 0,0.01 0,0 0,0 0,0.01 0,0 0,0 0,0.01 0,0 0,0 0,0.01 -0.01,0 0,0.01 0,0 -0.01,0.01 0,0 -0.01,0.01 0,0.01 -0.01,0 0,0.01 0,0 -0.01,0.01 0,0 0,0 -0.01,0.01 0,0 -0.01,0.01 0,0 -0.01,0.01 0,0 -0.01,0.01 0,0 -0.01,0.01 0,0.01 -0.01,0 -0.01,0.01 0,0.01 -0.01,0 -0.01,0.01 0,0.01 -0.01,0 -0.01,0.01 -0.01,0.01 c -1.23123,1.24116 -1.54897,3.10788 -1.54897,4.61713 0,1.71778 0.37731,3.42562 1.59862,4.66679 0.11915,0.11915 0.11915,0.13901 0.11915,0.16879 0,0.0695 -0.0298,0.0894 -0.0894,0.0894 -0.10922,0 -0.99293,-0.66527 -1.57876,-1.91636 -0.5064,-1.0823 -0.62555,-2.18445 -0.62555,-3.00859 0,-0.77448 0.10922,-1.966 0.65533,-3.07809 0.59576,-1.21137 1.43976,-1.85678 1.54898,-1.85678 0.0596,0 0.0894,0.0298 0.0894,0.0993 z"
         inkscape:connector-curvature="0"
         style="fill:#000000;stroke-width:0" /><path
         id="path8038"
         d="m 145.824,659.97389 0,0.0199 0,0.0298 0.01,0.0199 0.01,0.0199 0,0.0199 0.01,0.0298 0.01,0.0496 0.01,0.0497 0.01,0.0496 0.0199,0.0497 0.01,0.0497 0,0.0199 0.01,0.0198 0.01,0.0199 0,0.0298 0.01,0.0199 0,0.0199 0,0.0199 0.01,0.01 0,0.0199 0.01,0.0199 0,0.01 0,0.01 0,0.01 0,0.01 0,0.01 0,0.01 c 0,0.17873 -0.13901,0.26809 -0.27802,0.26809 -0.11915,0 -0.29788,-0.0794 -0.36738,-0.27802 -0.0298,-0.0695 -0.49647,-1.95608 -0.56598,-2.21424 -0.0695,-0.28795 -0.0894,-0.46668 -0.0894,-0.6454 0,-0.10923 0,-0.12909 0.01,-0.17873 -0.22838,-0.52626 -0.52625,-0.83407 -0.9135,-0.83407 -0.79434,0 -0.79434,0.73477 -0.79434,0.90357 0,0.31774 0.0496,0.69506 0.51632,1.90643 0.10922,0.29788 0.1688,0.43689 0.1688,0.63548 0,0.44682 -0.32767,0.8142 -0.81421,0.8142 -0.93335,0 -1.30074,-1.43975 -1.30074,-1.51918 0,-0.0993 0.0993,-0.0993 0.11915,-0.0993 0.0993,0 0.10923,0.0199 0.15887,0.1688 0.2681,0.92343 0.64541,1.23124 0.99294,1.23124 0.0894,0 0.24823,-0.01 0.24823,-0.32767 0,-0.24823 -0.10922,-0.52625 -0.17873,-0.69505 -0.43689,-1.16173 -0.55604,-1.60855 -0.55604,-1.98587 0,-0.90356 0.66526,-1.24116 1.40996,-1.24116 0.1688,0 0.63548,0 1.03265,0.68512 0.25817,-0.63547 0.94329,-0.68512 1.23124,-0.68512 0.7447,0 1.18159,0.61562 1.43975,1.21138 0.3376,0.76455 0.65534,2.08515 0.65534,2.56176 0,0.54611 -0.2681,0.69505 -0.43689,0.69505 -0.24824,0 -0.49647,-0.25816 -0.49647,-0.4766 0,-0.12908 0.0596,-0.18866 0.14894,-0.26809 0.10922,-0.10923 0.35746,-0.36739 0.35746,-0.83407 0,-0.3376 -0.28795,-1.31067 -0.54612,-1.80713 -0.25816,-0.52626 -0.60569,-0.87379 -1.09222,-0.87379 -0.45675,0 -0.72484,0.29788 -0.72484,0.86386 0,0.27802 0.0695,0.5759 0.10922,0.71491 z"
         inkscape:connector-curvature="0"
         style="fill:#000000;stroke-width:0" /><path
         id="path8040"
         d="m 150.37163,665.50453 0,0 0,0 0,0 0,0 0,0 0,0 0,0.01 0,0 0.01,0 0,0.01 0,0 0,0 0,0.01 0.01,0 0,0.01 0,0.01 0,0 0,0.01 0.01,0 0,0.01 0,0.01 0,0 0,0.01 0.01,0.01 0,0.01 0,0 0,0.01 0,0.01 0,0 0.01,0.01 0,0.01 0,0.01 0,0 0,0.01 c 0,0.17872 -0.15887,0.28795 -0.30781,0.28795 -0.20852,0 -0.25816,-0.14894 -0.27802,-0.21845 l -0.76456,-2.14473 c -0.0199,-0.0497 -0.0199,-0.0695 -0.0199,-0.0794 0,-0.0794 0.20852,-0.11915 0.20852,-0.11915 0.0496,0 0.0596,0.0199 0.0894,0.0794 z"
         inkscape:connector-curvature="0"
         style="fill:#000000;stroke-width:0" /><path
         id="path8042"
         d="m 150.64965,658.57386 0,0 0,0.01 0,0.01 0,0.01 0,0.01 0,0 0,0.01 0,0.01 0,0 0,0.01 0,0.01 0,0 0,0.01 0,0 0,0.01 0,0.01 0,0 0,0 -0.01,0.01 0,0.01 0,0.01 -0.01,0.01 0,0 0,0.01 -0.01,0 0,0.01 -0.01,0 -0.01,0 0,0.01 -0.01,0 -0.01,0 -0.01,0 -0.01,0.01 0,0 -0.01,0 0,0 -0.01,0 0,0 -0.01,0 -0.01,0 0,0 -0.01,0 -0.01,0 -0.01,0 0,0 -0.01,0 -0.01,0 -0.01,0 -0.01,0 -0.01,0 c -0.43689,-0.43689 -1.07237,-0.44682 -1.36032,-0.44682 l 0,-0.24824 c 0.1688,0 0.62555,0 1.01279,0.19859 l 0,-3.52491 c 0,-0.22837 0,-0.31774 -0.69505,-0.31774 l -0.26809,0 0,-0.24823 c 0.12908,0.01 0.983,0.0298 1.24116,0.0298 0.20852,0 1.0823,-0.0199 1.24117,-0.0298 l 0,0.24823 -0.2681,0 c -0.69505,0 -0.69505,0.0894 -0.69505,0.31774 z"
         inkscape:connector-curvature="0"
         style="fill:#000000;stroke-width:0" /><path
         id="path8044"
         d="m 154.77032,656.63764 0,0.0695 0,0.0496 0,0.0596 -0.01,0.0596 0,0.0496 -0.01,0.0496 -0.01,0.0596 -0.01,0.0397 -0.01,0.0496 -0.0199,0.0496 -0.01,0.0397 -0.0199,0.0397 -0.01,0.0397 -0.0199,0.0397 -0.0199,0.0397 -0.0199,0.0298 -0.0199,0.0397 -0.0199,0.0298 -0.0298,0.0199 -0.0199,0.0298 -0.0298,0.0298 -0.0199,0.0199 -0.0298,0.0199 -0.0298,0.0199 -0.0298,0.01 -0.0298,0.0199 -0.0298,0.01 -0.0298,0.01 -0.0397,0.01 -0.0298,0 -0.0397,0.01 -0.0298,0 c -0.32766,0 -0.52625,-0.24823 -0.52625,-0.52625 0,-0.2681 0.19859,-0.52626 0.52625,-0.52626 0.11916,0 0.24824,0.0496 0.3376,0.12908 0.0298,0.0199 0.0497,0.0298 0.0596,0.0298 0,0 0.0198,-0.01 0.0198,-0.14894 0,-0.72484 -0.34752,-1.3206 -0.67519,-1.63834 -0.10922,-0.10922 -0.10922,-0.12908 -0.10922,-0.15887 0,-0.0695 0.0496,-0.10922 0.0993,-0.10922 0.10922,0 0.89364,0.75463 0.89364,1.90643 z"
         inkscape:connector-curvature="0"
         style="fill:#000000;stroke-width:0" /><path
         id="path8046"
         d="m 161.74071,659.97389 0,0.0199 0.01,0.0298 0,0.0199 0.01,0.0199 0,0.0199 0.01,0.0298 0.01,0.0496 0.01,0.0497 0.0199,0.0496 0.01,0.0497 0.01,0.0497 0.01,0.0199 0,0.0198 0.01,0.0199 0,0.0298 0.01,0.0199 0,0.0199 0.01,0.0199 0,0.01 0.01,0.0199 0,0.0199 0,0.01 0,0.01 0.01,0.01 0,0.01 0,0.01 0,0.01 c 0,0.17873 -0.13902,0.26809 -0.28796,0.26809 -0.11915,0 -0.29787,-0.0794 -0.36738,-0.27802 -0.0298,-0.0695 -0.49647,-1.95608 -0.56597,-2.21424 -0.0695,-0.28795 -0.0894,-0.46668 -0.0894,-0.6454 0,-0.10923 0,-0.12909 0.01,-0.17873 -0.22837,-0.52626 -0.52625,-0.83407 -0.91349,-0.83407 -0.78442,0 -0.78442,0.73477 -0.78442,0.90357 0,0.31774 0.0496,0.69506 0.5064,1.90643 0.10922,0.29788 0.16879,0.43689 0.16879,0.63548 0,0.44682 -0.31773,0.8142 -0.80427,0.8142 -0.94329,0 -1.31067,-1.43975 -1.31067,-1.51918 0,-0.0993 0.0993,-0.0993 0.11915,-0.0993 0.0993,0 0.10922,0.0199 0.15887,0.1688 0.26809,0.92343 0.65533,1.23124 1.00286,1.23124 0.0894,0 0.24823,-0.01 0.24823,-0.32767 0,-0.24823 -0.10922,-0.52625 -0.17872,-0.69505 -0.43689,-1.16173 -0.55605,-1.60855 -0.55605,-1.98587 0,-0.90356 0.66527,-1.24116 1.40004,-1.24116 0.1688,0 0.63547,0 1.03265,0.68512 0.25816,-0.63547 0.94328,-0.68512 1.24116,-0.68512 0.7447,0 1.17166,0.61562 1.42983,1.21138 0.33759,0.76455 0.65533,2.08515 0.65533,2.56176 0,0.54611 -0.26809,0.69505 -0.43689,0.69505 -0.24823,0 -0.48654,-0.25816 -0.48654,-0.4766 0,-0.12908 0.0496,-0.18866 0.13901,-0.26809 0.10923,-0.10923 0.35746,-0.36739 0.35746,-0.83407 0,-0.3376 -0.28795,-1.31067 -0.54611,-1.80713 -0.24824,-0.52626 -0.59576,-0.87379 -1.0823,-0.87379 -0.46668,0 -0.73477,0.29788 -0.73477,0.86386 0,0.27802 0.0695,0.5759 0.10922,0.71491 z"
         inkscape:connector-curvature="0"
         style="fill:#000000;stroke-width:0" /><path
         id="path8048"
         d="m 166.28834,665.50453 0,0 0,0 0,0 0,0 0,0 0,0 0,0.01 0,0 0,0 0.01,0.01 0,0 0,0 0,0.01 0,0 0.01,0.01 0,0.01 0,0 0,0.01 0.01,0 0,0.01 0,0.01 0,0 0,0.01 0.01,0.01 0,0.01 0,0 0,0.01 0,0.01 0,0 0,0.01 0,0.01 0.01,0.01 0,0 0,0.01 c 0,0.17872 -0.15887,0.28795 -0.30781,0.28795 -0.20851,0 -0.25816,-0.14894 -0.28795,-0.21845 l -0.75463,-2.14473 c -0.0199,-0.0497 -0.0199,-0.0695 -0.0199,-0.0794 0,-0.0794 0.20851,-0.11915 0.20851,-0.11915 0.0496,0 0.0596,0.0199 0.0894,0.0794 z"
         inkscape:connector-curvature="0"
         style="fill:#000000;stroke-width:0" /><path
         id="path8050"
         d="m 167.74795,655.43619 -0.23831,0 c -0.0199,-0.14894 -0.0894,-0.55604 -0.17873,-0.62554 -0.0496,-0.0496 -0.58583,-0.0496 -0.68512,-0.0496 l -1.28088,0 c 0.73477,0.64541 0.97307,0.84399 1.3901,1.16173 0.51633,0.4071 0.99294,0.83406 0.99294,1.4894 0,0.84399 -0.73477,1.35039 -1.62841,1.35039 -0.85392,0 -1.43976,-0.59576 -1.43976,-1.23124 0,-0.35746 0.29788,-0.38724 0.36739,-0.38724 0.1688,0 0.36738,0.10922 0.36738,0.35745 0,0.12908 -0.0496,0.36739 -0.4071,0.36739 0.21845,0.49646 0.68513,0.6454 1.01279,0.6454 0.69506,0 1.05251,-0.53618 1.05251,-1.10215 0,-0.59576 -0.42696,-1.07237 -0.6454,-1.3206 l -1.67806,-1.64827 c -0.0695,-0.0596 -0.0695,-0.0695 -0.0695,-0.26809 l 2.85965,0 z"
         inkscape:connector-curvature="0"
         style="fill:#000000;stroke-width:0" /><path
         id="path8052"
         d="m 171.54095,659.10011 0,0.0695 0,0.0794 0,0.0794 0,0.0794 -0.01,0.1688 -0.01,0.1688 -0.0199,0.17873 -0.0199,0.18865 -0.0298,0.19859 -0.0298,0.19859 -0.0397,0.19858 -0.0496,0.20852 -0.0497,0.20852 -0.0596,0.20851 -0.0695,0.20852 -0.0794,0.20851 -0.0397,0.10923 -0.0496,0.10922 -0.0497,0.0993 -0.0496,0.10922 c -0.59576,1.21138 -1.43975,1.84686 -1.53904,1.84686 -0.0596,0 -0.0993,-0.0298 -0.0993,-0.0894 0,-0.0298 0,-0.0496 0.18866,-0.22837 0.96314,-0.983 1.52912,-2.55184 1.52912,-4.60721 0,-1.68798 -0.36739,-3.42561 -1.5887,-4.66678 -0.12908,-0.11915 -0.12908,-0.13901 -0.12908,-0.1688 0,-0.0596 0.0397,-0.0993 0.0993,-0.0993 0.0993,0 0.99293,0.67519 1.56883,1.92629 0.5064,1.08229 0.62555,2.17452 0.62555,3.00858 z"
         inkscape:connector-curvature="0"
         style="fill:#000000;stroke-width:0" /><g
         ns0:jacobian_sqrt="1.558777"
         inkscapeversion="0.91"
         ns0:alignment="middle center"
         ns0:scale="1.24702137435"
         ns0:preamble="/Users/benhammel/.config/inkscape/extensions/default_packages.tex"
         ns0:text="$\\mathcal{L}(w_1, w_2)$"
         ns0:pdfconverter="pstoedit"
         ns0:texconverter="/library/tex/texbin/pdflatex"
         ns0:version="0.8.0"
         word-spacing="normal"
         letter-spacing="normal"
         font-size-adjust="none"
         font-stretch="normal"
         font-weight="normal"
         font-variant="normal"
         font-style="normal"
         stroke-miterlimit="10.433"
         xml:space="preserve"
         transform="matrix(1.0339652,0,0,1.0339652,-146.09602,-21.197817)"
         id="g8378"
         style="font-style:normal;font-variant:normal;font-weight:normal;font-stretch:normal;letter-spacing:normal;word-spacing:normal;text-anchor:start;fill:none;fill-opacity:1;fill-rule:evenodd;stroke:#000000;stroke-linecap:butt;stroke-linejoin:miter;stroke-miterlimit:10.43299961;stroke-dasharray:none;stroke-dashoffset:0;stroke-opacity:1"><path
           id="path8380"
           d="m 150.51,658.16 0.05,0.08 0.04,0.07 0.05,0.08 0.04,0.07 0.04,0.08 0.04,0.07 0.04,0.07 0.04,0.07 0.03,0.07 0.03,0.07 0.03,0.06 0.03,0.07 0.03,0.06 0.03,0.07 0.05,0.12 0.04,0.12 0.04,0.12 0.04,0.12 0.03,0.11 0.04,0.11 0.02,0.1 0.03,0.11 0.03,0.1 c 0.34,1.37 0.72,2.56 1.34,3.24 0.12,0.13 0.2,0.22 0.52,0.22 0.69,0 0.71,-0.68 0.71,-0.82 0,-0.18 -0.05,-0.32 -0.05,-0.37 0,-0.07 0.06,-0.07 0.07,-0.07 0.16,0 0.43,0.11 0.68,0.29 0.17,0.14 0.26,0.24 0.26,0.64 0,0.54 -0.28,0.95 -0.83,0.95 -0.32,0 -1.2,-0.08 -2.18,-1.07 -0.8,-0.81 -1.26,-2.6 -1.45,-3.34 -0.18,-0.69 -0.26,-1 -0.56,-1.59 -0.07,-0.12 -0.33,-0.56 -0.47,-0.69 -0.27,-0.25 -0.37,-0.42 -0.37,-0.47 0,-0.02 0.02,-0.06 0.09,-0.06 0.04,0 0.25,0.04 0.51,0.2 0.17,0.1 0.19,0.12 0.42,0.36 0.5,-0.01 0.85,-0.1 1.47,-0.28 0.51,-0.14 1.02,-0.28 1.53,-0.28 0.81,0 1.62,0.6 1.94,1.04 0.2,0.27 0.26,0.52 0.26,0.55 0,0.06 -0.06,0.06 -0.07,0.06 -0.16,0 -0.4,-0.1 -0.57,-0.22 -0.26,-0.17 -0.28,-0.23 -0.34,-0.4 -0.05,-0.16 -0.11,-0.24 -0.15,-0.3 -0.08,-0.12 -0.09,-0.12 -0.24,-0.12 -0.48,0 -0.98,0.15 -1.64,0.33 -0.28,0.08 -0.83,0.24 -1.32,0.24 -0.13,0 -0.27,-0.01 -0.4,-0.04 z"
           inkscape:connector-curvature="0"
           style="fill:#000000;stroke-width:0" /><path
           id="path8382"
           d="m 158.88,654.85 0,0.01 0,0 0,0 0,0.01 0,0 0,0 0,0.01 0,0 0,0 0,0.01 -0.01,0 0,0.01 0,0 -0.01,0.01 0,0 -0.01,0.01 0,0.01 -0.01,0 0,0.01 0,0 -0.01,0.01 0,0 0,0 -0.01,0.01 0,0 -0.01,0.01 0,0 -0.01,0.01 0,0 -0.01,0.01 0,0 -0.01,0.01 0,0.01 -0.01,0 -0.01,0.01 0,0.01 -0.01,0 -0.01,0.01 0,0.01 -0.01,0 -0.01,0.01 -0.01,0.01 c -1.24,1.25 -1.56,3.13 -1.56,4.65 0,1.73 0.38,3.45 1.61,4.7 0.12,0.12 0.12,0.14 0.12,0.17 0,0.07 -0.03,0.09 -0.09,0.09 -0.11,0 -1,-0.67 -1.59,-1.93 -0.51,-1.09 -0.63,-2.2 -0.63,-3.03 0,-0.78 0.11,-1.98 0.66,-3.1 0.6,-1.22 1.45,-1.87 1.56,-1.87 0.06,0 0.09,0.03 0.09,0.1 z"
           inkscape:connector-curvature="0"
           style="fill:#000000;stroke-width:0" /><path
           id="path8384"
           d="m 164.07,660.6 0,0.02 0,0.03 0.01,0.02 0.01,0.02 0,0.02 0.01,0.03 0.01,0.05 0.01,0.05 0.01,0.05 0.02,0.05 0.01,0.05 0,0.02 0.01,0.02 0.01,0.02 0,0.03 0.01,0.02 0,0.02 0,0.02 0.01,0.01 0,0.02 0.01,0.02 0,0.01 0,0.01 0,0.01 0,0.01 0,0.01 0,0.01 c 0,0.18 -0.14,0.27 -0.28,0.27 -0.12,0 -0.3,-0.08 -0.37,-0.28 -0.03,-0.07 -0.5,-1.97 -0.57,-2.23 -0.07,-0.29 -0.09,-0.47 -0.09,-0.65 0,-0.11 0,-0.13 0.01,-0.18 -0.23,-0.53 -0.53,-0.84 -0.92,-0.84 -0.8,0 -0.8,0.74 -0.8,0.91 0,0.32 0.05,0.7 0.52,1.92 0.11,0.3 0.17,0.44 0.17,0.64 0,0.45 -0.33,0.82 -0.82,0.82 -0.94,0 -1.31,-1.45 -1.31,-1.53 0,-0.1 0.1,-0.1 0.12,-0.1 0.1,0 0.11,0.02 0.16,0.17 0.27,0.93 0.65,1.24 1,1.24 0.09,0 0.25,-0.01 0.25,-0.33 0,-0.25 -0.11,-0.53 -0.18,-0.7 -0.44,-1.17 -0.56,-1.62 -0.56,-2 0,-0.91 0.67,-1.25 1.42,-1.25 0.17,0 0.64,0 1.04,0.69 0.26,-0.64 0.95,-0.69 1.24,-0.69 0.75,0 1.19,0.62 1.45,1.22 0.34,0.77 0.66,2.1 0.66,2.58 0,0.55 -0.27,0.7 -0.44,0.7 -0.25,0 -0.5,-0.26 -0.5,-0.48 0,-0.13 0.06,-0.19 0.15,-0.27 0.11,-0.11 0.36,-0.37 0.36,-0.84 0,-0.34 -0.29,-1.32 -0.55,-1.82 -0.26,-0.53 -0.61,-0.88 -1.1,-0.88 -0.46,0 -0.73,0.3 -0.73,0.87 0,0.28 0.07,0.58 0.11,0.72 z"
           inkscape:connector-curvature="0"
           style="fill:#000000;stroke-width:0" /><path
           id="path8386"
           d="m 168.93,660.16 0,0.01 0,0.01 0,0.01 0,0.01 0,0 0,0.01 0,0.01 0,0.01 0,0 0,0.01 0,0.01 0,0 0,0.01 0,0 0,0.01 0,0 0,0.01 0,0 -0.01,0.01 0,0.01 0,0.01 -0.01,0 0,0.01 0,0.01 -0.01,0 0,0.01 -0.01,0 -0.01,0 0,0.01 -0.01,0 -0.01,0 -0.01,0 -0.01,0 0,0 -0.01,0 0,0.01 -0.01,0 0,0 -0.01,0 -0.01,0 0,0 -0.01,0 -0.01,0 -0.01,0 0,0 -0.01,0 -0.01,0 -0.01,0 -0.01,0 -0.01,0 c -0.44,-0.44 -1.08,-0.45 -1.37,-0.45 l 0,-0.25 c 0.17,0 0.63,0 1.02,0.2 l 0,-3.55 c 0,-0.23 0,-0.32 -0.7,-0.32 l -0.27,0 0,-0.25 c 0.13,0.01 0.99,0.03 1.25,0.03 0.21,0 1.09,-0.02 1.25,-0.03 l 0,0.25 -0.27,0 c -0.7,0 -0.7,0.09 -0.7,0.32 z"
           inkscape:connector-curvature="0"
           style="fill:#000000;stroke-width:0" /><path
           id="path8388"
           d="m 173.08,657.24 0,0.07 0,0.05 0,0.06 -0.01,0.06 0,0.05 -0.01,0.05 -0.01,0.06 -0.01,0.04 -0.01,0.05 -0.02,0.05 -0.01,0.04 -0.02,0.04 -0.01,0.04 -0.02,0.04 -0.02,0.04 -0.02,0.03 -0.02,0.04 -0.02,0.03 -0.03,0.02 -0.02,0.03 -0.03,0.03 -0.02,0.02 -0.03,0.02 -0.03,0.02 -0.03,0.01 -0.03,0.02 -0.03,0.01 -0.03,0.01 -0.04,0.01 -0.03,0 -0.04,0.01 -0.03,0 c -0.33,0 -0.53,-0.25 -0.53,-0.53 0,-0.27 0.2,-0.53 0.53,-0.53 0.12,0 0.25,0.05 0.34,0.13 0.03,0.02 0.05,0.03 0.06,0.03 0,0 0.02,-0.01 0.02,-0.15 0,-0.73 -0.35,-1.33 -0.68,-1.65 -0.11,-0.11 -0.11,-0.13 -0.11,-0.16 0,-0.07 0.05,-0.11 0.1,-0.11 0.11,0 0.9,0.76 0.9,1.92 z"
           inkscape:connector-curvature="0"
           style="fill:#000000;stroke-width:0" /><path
           id="path8390"
           d="m 180.1,660.6 0,0.02 0.01,0.03 0,0.02 0.01,0.02 0,0.02 0.01,0.03 0.01,0.05 0.01,0.05 0.02,0.05 0.01,0.05 0.01,0.05 0.01,0.02 0,0.02 0.01,0.02 0,0.03 0.01,0.02 0,0.02 0.01,0.02 0,0.01 0.01,0.02 0,0.02 0,0.01 0,0.01 0.01,0.01 0,0.01 0,0.01 0,0.01 c 0,0.18 -0.14,0.27 -0.29,0.27 -0.12,0 -0.3,-0.08 -0.37,-0.28 -0.03,-0.07 -0.5,-1.97 -0.57,-2.23 -0.07,-0.29 -0.09,-0.47 -0.09,-0.65 0,-0.11 0,-0.13 0.01,-0.18 -0.23,-0.53 -0.53,-0.84 -0.92,-0.84 -0.79,0 -0.79,0.74 -0.79,0.91 0,0.32 0.05,0.7 0.51,1.92 0.11,0.3 0.17,0.44 0.17,0.64 0,0.45 -0.32,0.82 -0.81,0.82 -0.95,0 -1.32,-1.45 -1.32,-1.53 0,-0.1 0.1,-0.1 0.12,-0.1 0.1,0 0.11,0.02 0.16,0.17 0.27,0.93 0.66,1.24 1.01,1.24 0.09,0 0.25,-0.01 0.25,-0.33 0,-0.25 -0.11,-0.53 -0.18,-0.7 -0.44,-1.17 -0.56,-1.62 -0.56,-2 0,-0.91 0.67,-1.25 1.41,-1.25 0.17,0 0.64,0 1.04,0.69 0.26,-0.64 0.95,-0.69 1.25,-0.69 0.75,0 1.18,0.62 1.44,1.22 0.34,0.77 0.66,2.1 0.66,2.58 0,0.55 -0.27,0.7 -0.44,0.7 -0.25,0 -0.49,-0.26 -0.49,-0.48 0,-0.13 0.05,-0.19 0.14,-0.27 0.11,-0.11 0.36,-0.37 0.36,-0.84 0,-0.34 -0.29,-1.32 -0.55,-1.82 -0.25,-0.53 -0.6,-0.88 -1.09,-0.88 -0.47,0 -0.74,0.3 -0.74,0.87 0,0.28 0.07,0.58 0.11,0.72 z"
           inkscape:connector-curvature="0"
           style="fill:#000000;stroke-width:0" /><path
           id="path8392"
           d="m 186.15,657.01 -0.24,0 c -0.02,-0.16 -0.09,-0.57 -0.18,-0.64 -0.05,-0.04 -0.59,-0.04 -0.69,-0.04 l -1.29,0 c 0.74,0.65 0.98,0.84 1.4,1.17 0.52,0.41 1,0.84 1,1.5 0,0.84 -0.74,1.36 -1.64,1.36 -0.86,0 -1.45,-0.61 -1.45,-1.25 0,-0.35 0.3,-0.39 0.37,-0.39 0.17,0 0.37,0.12 0.37,0.37 0,0.13 -0.05,0.37 -0.41,0.37 0.22,0.5 0.69,0.65 1.02,0.65 0.7,0 1.06,-0.54 1.06,-1.11 0,-0.6 -0.43,-1.08 -0.65,-1.33 l -1.69,-1.66 c -0.07,-0.06 -0.07,-0.07 -0.07,-0.27 l 2.88,0 z"
           inkscape:connector-curvature="0"
           style="fill:#000000;stroke-width:0" /><path
           id="path8394"
           d="m 189.97,659.72 0,0.07 0,0.08 0,0.08 0,0.08 -0.01,0.17 -0.01,0.17 -0.02,0.18 -0.02,0.19 -0.03,0.2 -0.03,0.2 -0.04,0.2 -0.05,0.21 -0.05,0.21 -0.06,0.21 -0.07,0.21 -0.08,0.21 -0.04,0.11 -0.05,0.11 -0.05,0.1 -0.05,0.11 c -0.6,1.22 -1.45,1.86 -1.55,1.86 -0.06,0 -0.1,-0.03 -0.1,-0.09 0,-0.03 0,-0.05 0.19,-0.23 0.97,-0.99 1.54,-2.57 1.54,-4.64 0,-1.7 -0.37,-3.45 -1.6,-4.7 -0.13,-0.12 -0.13,-0.14 -0.13,-0.17 0,-0.06 0.04,-0.1 0.1,-0.1 0.1,0 1,0.68 1.58,1.94 0.51,1.09 0.63,2.19 0.63,3.03 z"
           inkscape:connector-curvature="0"
           style="fill:#000000;stroke-width:0" /></g><path
         style="fill:none;fill-rule:evenodd;stroke:#ff0000;stroke-width:1.28305721;stroke-linecap:butt;stroke-linejoin:miter;stroke-miterlimit:10.43299961;stroke-dasharray:none;stroke-opacity:1"
         d="m -9.4657088,608.13968 3.508578,1.46191 -1.461909,2.63143 2.631436,0.87714 -2.923818,1.46191 3.2162,0.87715 -3.508582,1.46191 4.093346,1.46191 -2.923818,1.16952 2.631436,0.58477 -2.631436,2.33905 2.464952,1.27092 -3.204551,1.1371 1.343844,1.1371 2.274197,0.62023 1.0337258,1.44722 -3.1011777,1.03372"
         id="path8496"
         inkscape:connector-curvature="0"
         sodipodi:nodetypes="ccccccccccccccccc" /><path
         style="fill:none;fill-rule:evenodd;stroke:#000000;stroke-width:0.64152861px;stroke-linecap:butt;stroke-linejoin:miter;stroke-opacity:1"
         d="m -12.319105,579.14467 -0.0099,-0.0643"
         id="path8498"
         inkscape:connector-curvature="0" /><ellipse
         style="fill:#ff0000;fill-opacity:1;stroke:none;stroke-width:0.64152861;stroke-miterlimit:4;stroke-dasharray:none;stroke-opacity:1"
         id="path8500"
         cx="-6.0232816"
         cy="-629.31946"
         transform="scale(1,-1)"
         rx="1.1370986"
         ry="1.2404711" /><path
         style="fill:none;fill-rule:evenodd;stroke:#ff0000;stroke-width:1.28305721;stroke-linecap:butt;stroke-linejoin:miter;stroke-miterlimit:10.43299961;stroke-dasharray:none;stroke-opacity:1"
         d="m 107.78993,614.43377 2.06746,2.06745 0.41349,3.10118 -0.41349,2.89443 2.68768,1.44721 -1.24047,3.51467 2.89444,2.48094"
         id="path8502"
         inkscape:connector-curvature="0" /><ellipse
         ry="1.2404711"
         rx="1.1370986"
         transform="scale(1,-1)"
         cy="-630.35321"
         cx="114.50916"
         id="ellipse8504"
         style="fill:#ff0000;fill-opacity:1;stroke:none;stroke-width:0.64152861;stroke-miterlimit:4;stroke-dasharray:none;stroke-opacity:1" /></g>  </g>
</svg>
